HIERARCHY
ROOT Hips
{
	OFFSET 0.000000 83.214638 0.000000
	CHANNELS 6 Xposition Yposition Zposition Xrotation Yrotation Zrotation
	JOINT Pelvis
	{
		OFFSET 0.000000 0.000000 0.000000
		CHANNELS 3 Xrotation Yrotation Zrotation
		JOINT LeftUpLeg
		{
			OFFSET 8.479700 -4.795502 -0.379100
			CHANNELS 3 Xrotation Yrotation Zrotation
			JOINT LeftLeg
			{
				OFFSET 0.024144 -32.555107 0.112900
				CHANNELS 3 Xrotation Yrotation Zrotation
				JOINT LeftFoot
				{
					OFFSET -0.024144 -32.638630 -3.012600
					CHANNELS 3 Xrotation Yrotation Zrotation
					JOINT LeftToeBase
					{
						OFFSET 0.970200 -13.225400 11.864200
						CHANNELS 3 Xrotation Yrotation Zrotation
						End Site
						{
							OFFSET 0.000000 12.319262 0.000000
						}
					}
					JOINT LFootTongue
					{
						OFFSET 1.142400 -1.059800 6.665200
						CHANNELS 3 Xrotation Yrotation Zrotation
						End Site
						{
							OFFSET 0.000000 12.319262 0.000000
						}
					}
				}
				JOINT LeftPantLeg
				{
					OFFSET 0.918482 -16.533964 -2.284700
					CHANNELS 3 Xrotation Yrotation Zrotation
					End Site
					{
						OFFSET 0.350399 24.744368 0.000000
					}
				}
			}
		}
		JOINT RightUpLeg
		{
			OFFSET -8.479700 -4.795502 -0.379100
			CHANNELS 3 Xrotation Yrotation Zrotation
			JOINT RightLeg
			{
				OFFSET -0.023144 -32.555092 0.112900
				CHANNELS 3 Xrotation Yrotation Zrotation
				JOINT RightFoot
				{
					OFFSET 0.023144 -32.638641 -3.012700
					CHANNELS 3 Xrotation Yrotation Zrotation
					JOINT RightToeBase
					{
						OFFSET -0.970200 -13.225400 11.864200
						CHANNELS 3 Xrotation Yrotation Zrotation
						End Site
						{
							OFFSET 0.000000 12.319244 0.000000
						}
					}
					JOINT RFootTongue
					{
						OFFSET -1.142200 -1.059800 6.665200
						CHANNELS 3 Xrotation Yrotation Zrotation
						End Site
						{
							OFFSET 0.000000 12.319243 0.000000
						}
					}
				}
				JOINT RightPantLeg
				{
					OFFSET -0.919482 -16.533978 -2.284800
					CHANNELS 3 Xrotation Yrotation Zrotation
					End Site
					{
						OFFSET -0.350400 24.744419 0.000000
					}
				}
			}
		}
	}
	JOINT Spine
	{
		OFFSET 0.000000 7.722000 1.166200
		CHANNELS 3 Xrotation Yrotation Zrotation
		JOINT Spine1
		{
			OFFSET 0.000000 12.024101 0.248800
			CHANNELS 3 Xrotation Yrotation Zrotation
			JOINT Spine2
			{
				OFFSET 0.000000 11.502998 -0.491200
				CHANNELS 3 Xrotation Yrotation Zrotation
				JOINT Neck
				{
					OFFSET 0.000000 18.430702 -3.123100
					CHANNELS 3 Xrotation Yrotation Zrotation
					JOINT Head
					{
						OFFSET 0.000000 9.051102 1.034000
						CHANNELS 3 Xrotation Yrotation Zrotation
						JOINT HairB
						{
							OFFSET 0.208400 24.786102 24.822300
							CHANNELS 3 Xrotation Yrotation Zrotation
							End Site
							{
								OFFSET 0.000000 32.263779 0.000000
							}
						}
						JOINT HairA
						{
							OFFSET -7.081100 24.428299 23.196600
							CHANNELS 3 Xrotation Yrotation Zrotation
							End Site
							{
								OFFSET 0.000000 32.263779 0.000000
							}
						}
						JOINT Hat
						{
							OFFSET 16.728800 15.048294 -15.439601
							CHANNELS 3 Xrotation Yrotation Zrotation
							End Site
							{
								OFFSET 0.000000 32.263779 0.000000
							}
						}
					}
				}
				JOINT LeftShoulder
				{
					OFFSET 6.197800 13.665199 -4.064700
					CHANNELS 3 Xrotation Yrotation Zrotation
					JOINT LeftArm
					{
						OFFSET 7.778100 -0.187103 -1.709300
						CHANNELS 3 Xrotation Yrotation Zrotation
						JOINT LeftForeArm
						{
							OFFSET 22.049376 0.000000 0.000000
							CHANNELS 3 Xrotation Yrotation Zrotation
							JOINT LeftHand
							{
								OFFSET 23.009392 0.000000 0.000000
								CHANNELS 3 Xrotation Yrotation Zrotation
								JOINT LeftHandThumb1
								{
									OFFSET 3.507191 -2.063065 3.133727
									CHANNELS 3 Xrotation Yrotation Zrotation
									JOINT LeftHandThumb2
									{
										OFFSET 3.101337 -1.790558 1.790558
										CHANNELS 3 Xrotation Yrotation Zrotation
										JOINT LeftHandThumb3
										{
											OFFSET 3.058640 -1.765907 1.765906
											CHANNELS 3 Xrotation Yrotation Zrotation
											End Site
											{
												OFFSET -0.415260 3.926476 -0.049563
											}
										}
									}
								}
								JOINT LeftHandIndex1
								{
									OFFSET 11.334419 -0.901459 3.706815
									CHANNELS 3 Xrotation Yrotation Zrotation
									JOINT LeftHandIndex2
									{
										OFFSET 3.283112 0.000000 0.000000
										CHANNELS 3 Xrotation Yrotation Zrotation
										JOINT LeftHandIndex3
										{
											OFFSET 3.323853 0.000000 0.000000
											CHANNELS 3 Xrotation Yrotation Zrotation
											End Site
											{
												OFFSET -1.135597 3.097809 0.402452
											}
										}
									}
								}
								JOINT LeftHandMiddle1
								{
									OFFSET 11.335861 0.000000 0.000000
									CHANNELS 3 Xrotation Yrotation Zrotation
									JOINT LeftHandMiddle2
									{
										OFFSET 3.410492 0.000000 0.000000
										CHANNELS 3 Xrotation Yrotation Zrotation
										JOINT LeftHandMiddle3
										{
											OFFSET 3.312172 0.000000 0.000000
											CHANNELS 3 Xrotation Yrotation Zrotation
											End Site
											{
												OFFSET -1.150200 3.080154 0.400270
											}
										}
									}
								}
								JOINT LeftHandRing1
								{
									OFFSET 11.514786 -0.013176 -3.003090
									CHANNELS 3 Xrotation Yrotation Zrotation
									JOINT LeftHandRing2
									{
										OFFSET 3.053307 0.000000 0.000000
										CHANNELS 3 Xrotation Yrotation Zrotation
										JOINT LeftHandRing3
										{
											OFFSET 3.295807 0.000000 0.000000
											CHANNELS 3 Xrotation Yrotation Zrotation
											End Site
											{
												OFFSET -1.281006 3.013344 0.375733
											}
										}
									}
								}
								JOINT LeftHandPinky1
								{
									OFFSET 10.518692 -0.960396 -5.730441
									CHANNELS 3 Xrotation Yrotation Zrotation
									JOINT LeftHandPinky2
									{
										OFFSET 2.861649 0.000000 0.000000
										CHANNELS 3 Xrotation Yrotation Zrotation
										JOINT LeftHandPinky3
										{
											OFFSET 2.863380 0.000000 0.000000
											CHANNELS 3 Xrotation Yrotation Zrotation
											End Site
											{
												OFFSET -0.843597 2.711159 0.369971
											}
										}
									}
								}
							}
							JOINT LSleeve
							{
								OFFSET 6.676277 -0.344902 -1.011730
								CHANNELS 3 Xrotation Yrotation Zrotation
								End Site
								{
									OFFSET 0.000000 14.885353 0.000000
								}
							}
						}
					}
				}
				JOINT RightShoulder
				{
					OFFSET -6.197800 13.665199 -4.064700
					CHANNELS 3 Xrotation Yrotation Zrotation
					JOINT RightArm
					{
						OFFSET -7.778100 -0.187103 -1.709300
						CHANNELS 3 Xrotation Yrotation Zrotation
						JOINT RightForeArm
						{
							OFFSET -22.049376 0.000000 0.000000
							CHANNELS 3 Xrotation Yrotation Zrotation
							JOINT RightHand
							{
								OFFSET -23.009392 0.000000 0.000000
								CHANNELS 3 Xrotation Yrotation Zrotation
								JOINT RightHandThumb1
								{
									OFFSET -3.507191 -2.063065 3.133727
									CHANNELS 3 Xrotation Yrotation Zrotation
									JOINT RightHandThumb2
									{
										OFFSET -3.101337 -1.790558 1.790558
										CHANNELS 3 Xrotation Yrotation Zrotation
										JOINT RightHandThumb3
										{
											OFFSET -3.058640 -1.765907 1.765906
											CHANNELS 3 Xrotation Yrotation Zrotation
											End Site
											{
												OFFSET 0.415260 3.926476 -0.049563
											}
										}
									}
								}
								JOINT RightHandIndex1
								{
									OFFSET -11.334419 -0.901459 3.706815
									CHANNELS 3 Xrotation Yrotation Zrotation
									JOINT RightHandIndex2
									{
										OFFSET -3.283112 0.000000 0.000000
										CHANNELS 3 Xrotation Yrotation Zrotation
										JOINT RightHandIndex3
										{
											OFFSET -3.323853 0.000000 0.000000
											CHANNELS 3 Xrotation Yrotation Zrotation
											End Site
											{
												OFFSET 1.135597 3.097809 0.402452
											}
										}
									}
								}
								JOINT RightHandMiddle1
								{
									OFFSET -11.335861 0.000000 0.000000
									CHANNELS 3 Xrotation Yrotation Zrotation
									JOINT RightHandMiddle2
									{
										OFFSET -3.410492 0.000000 0.000000
										CHANNELS 3 Xrotation Yrotation Zrotation
										JOINT RightHandMiddle3
										{
											OFFSET -3.312172 0.000000 0.000000
											CHANNELS 3 Xrotation Yrotation Zrotation
											End Site
											{
												OFFSET 1.150200 3.080154 0.400270
											}
										}
									}
								}
								JOINT RightHandRing1
								{
									OFFSET -11.514786 -0.013176 -3.003090
									CHANNELS 3 Xrotation Yrotation Zrotation
									JOINT RightHandRing2
									{
										OFFSET -3.053307 0.000000 0.000000
										CHANNELS 3 Xrotation Yrotation Zrotation
										JOINT RightHandRing3
										{
											OFFSET -3.295807 0.000000 0.000000
											CHANNELS 3 Xrotation Yrotation Zrotation
											End Site
											{
												OFFSET 1.281006 3.013344 0.375733
											}
										}
									}
								}
								JOINT RightHandPinky1
								{
									OFFSET -10.518692 -0.960396 -5.730441
									CHANNELS 3 Xrotation Yrotation Zrotation
									JOINT RightHandPinky2
									{
										OFFSET -2.861649 0.000000 0.000000
										CHANNELS 3 Xrotation Yrotation Zrotation
										JOINT RightHandPinky3
										{
											OFFSET -2.863380 0.000000 0.000000
											CHANNELS 3 Xrotation Yrotation Zrotation
											End Site
											{
												OFFSET 0.843597 2.711159 0.369971
											}
										}
									}
								}
							}
							JOINT RSleeve
							{
								OFFSET -6.676277 -0.344902 -1.011730
								CHANNELS 3 Xrotation Yrotation Zrotation
								End Site
								{
									OFFSET 0.000000 14.885353 0.000000
								}
							}
						}
					}
				}
				JOINT Backpack
				{
					OFFSET 0.000000 -2.471497 36.677502
					CHANNELS 3 Xrotation Yrotation Zrotation
					End Site
					{
						OFFSET 0.000000 20.427315 0.000000
					}
				}
				JOINT Hood
				{
					OFFSET 0.000000 18.754097 -10.431000
					CHANNELS 3 Xrotation Yrotation Zrotation
					JOINT Hood1
					{
						OFFSET 0.000000 -5.011002 -7.685901
						CHANNELS 3 Xrotation Yrotation Zrotation
						End Site
						{
							OFFSET 0.000000 9.175140 0.000000
						}
					}
				}
				JOINT LHoodieString
				{
					OFFSET 5.250500 16.397697 3.089900
					CHANNELS 3 Xrotation Yrotation Zrotation
					JOINT LHoodieString1
					{
						OFFSET 0.257700 -6.364304 3.694600
						CHANNELS 3 Xrotation Yrotation Zrotation
						JOINT LHoodieString2
						{
							OFFSET 0.000000 -9.643799 2.679100
							CHANNELS 3 Xrotation Yrotation Zrotation
							End Site
							{
								OFFSET 0.000000 10.009018 0.000000
							}
						}
					}
				}
				JOINT RHoodieString
				{
					OFFSET -5.250500 16.397697 3.089900
					CHANNELS 3 Xrotation Yrotation Zrotation
					JOINT RHoodieString1
					{
						OFFSET -0.257700 -6.364304 3.694600
						CHANNELS 3 Xrotation Yrotation Zrotation
						JOINT RHoodieString2
						{
							OFFSET 0.000000 -9.643799 2.679100
							CHANNELS 3 Xrotation Yrotation Zrotation
							End Site
							{
								OFFSET 0.000000 10.009018 0.000000
							}
						}
					}
				}
			}
			JOINT LBackpack_Strap
			{
				OFFSET 15.223200 -7.719803 -6.610900
				CHANNELS 3 Xrotation Yrotation Zrotation
				End Site
				{
					OFFSET 0.000000 16.040596 0.000000
				}
			}
			JOINT RBackpack_Strap
			{
				OFFSET -15.223000 -7.719803 -6.610900
				CHANNELS 3 Xrotation Yrotation Zrotation
				End Site
				{
					OFFSET 0.000000 16.040596 0.000000
				}
			}
		}
	}
	JOINT BoyFacialAnim_Joint
	{
		OFFSET 1.000000 -82.208099 -1.550900
		CHANNELS 3 Xrotation Yrotation Zrotation
		End Site
		{
			OFFSET 0.000000 30.012791 0.000000
		}
	}
}
MOTION
Frames: 4
Frame Time: 0.033333
0.204942 10.952843 3.423454 82.071929 -4.155198 -2.364457 -0.000001 0.000000 0.000000 -11.952304 33.667526 19.487877 23.605313 -9.027363 -10.138855 -12.214345 14.301504 25.049003 -0.000000 0.000001 0.000002 -0.000000 0.000001 0.000001 0.000001 0.000001 0.000001 -41.395656 -39.645317 -49.629425 29.845096 -6.695880 -1.476804 -6.419463 7.336305 16.290618 0.000000 0.000000 0.000001 0.000000 0.000000 0.000001 0.000000 -0.000001 -0.000000 5.835281 -1.466258 -0.341327 -4.505678 -5.981537 1.125162 -3.978333 -6.220828 0.289841 -32.792592 -1.702235 16.058676 -6.181633 25.655048 -5.100558 -0.000003 -0.000001 -0.000000 -0.000003 -0.000001 -0.000000 -0.000003 -0.000001 -0.000000 -32.464159 -38.489444 29.683654 -79.250849 -12.366279 -42.888732 0.000005 -47.567046 0.000009 -117.385967 17.225722 23.833160 4.709221 9.560369 3.111989 19.473194 -1.474914 7.636923 -0.000003 0.000003 0.000001 -0.212814 3.933723 -36.747128 2.942147 5.078907 -60.144617 -0.000002 -0.000000 -0.000004 0.405926 5.507054 -52.453148 3.387159 5.308607 -65.057477 0.000003 -0.000001 0.000002 -0.074378 5.736789 -61.061406 4.055033 5.569501 -72.094921 0.000000 -0.000001 0.000001 -6.565580 4.545139 -72.425215 3.299631 5.267240 -64.107835 -0.000000 -0.000001 0.000001 0.000002 -0.000002 0.000000 -20.876753 19.499218 15.427027 -54.224684 48.923883 38.187758 0.000047 110.391170 -0.000042 -42.846272 -8.113277 -56.436996 8.377119 -4.904137 11.021996 21.620228 -18.183876 -18.379211 0.000002 -0.000000 -0.000000 -0.920046 1.683581 12.434959 0.748115 -2.533479 32.898310 0.000000 0.000001 0.000009 3.413055 -7.186257 51.650246 6.296809 -4.359587 110.634660 0.000002 0.000001 -0.000000 -3.349050 -2.600428 57.010561 5.440864 -4.590903 99.698161 0.000001 0.000001 0.000002 -3.996441 -3.303938 64.593857 4.058842 -4.618684 82.610537 -0.000001 -0.000001 -0.000005 -0.000003 0.000001 -0.000002 -0.000000 -0.000001 -0.000000 -0.000000 -0.000001 -0.000000 -0.000000 -0.000001 -0.000000 -0.000000 -0.000001 -0.000000 -0.000000 -0.000001 -0.000000 0.000001 0.000000 0.000000 -0.000000 -0.000001 -0.000000 -0.000000 -0.000001 -0.000000 0.000001 0.000000 0.000000 -0.000000 0.000000 -0.000000 -0.000000 0.000000 -0.000000 -0.000001 0.000000 0.000000 
0.036528 10.954544 3.418655 82.513494 -2.040727 -1.507199 0.000000 0.000000 -0.000000 -11.762330 33.231886 17.900770 23.153189 -8.317265 -10.027801 -11.032836 14.010756 25.505181 0.000001 -0.000002 0.000001 0.000001 -0.000002 -0.000000 -0.000001 0.000002 0.000000 -38.277234 -41.457708 -48.477196 25.985431 -12.354127 -0.949207 -8.801665 6.253876 18.714618 -0.000000 -0.000002 -0.000000 -0.000000 -0.000002 -0.000000 -0.000000 -0.000000 -0.000000 5.797977 -3.719806 -0.057856 -4.181907 -6.586078 1.234187 -3.678812 -6.823717 0.426187 -32.999636 -1.184401 15.454555 -5.862254 26.176563 -6.072077 -0.000005 -0.000000 0.000000 -0.000005 -0.000000 0.000000 -0.000005 -0.000000 0.000000 -35.415576 -37.144635 25.030318 -81.058110 -13.159414 -42.378349 0.000030 -49.569569 0.000046 -117.126871 16.881547 26.421776 5.159720 9.242768 2.769884 19.100448 -1.838478 7.807559 -0.000000 -0.000001 0.000001 -0.565724 3.406073 -36.144979 2.971227 5.095445 -60.472596 -0.000007 0.000001 -0.000002 -0.579504 4.800831 -53.075918 3.523316 5.369568 -66.520729 0.000004 0.000001 0.000000 0.551191 6.144036 -62.139681 4.258150 5.630789 -74.176093 -0.000003 0.000000 -0.000002 -6.178637 4.940125 -73.774028 3.313137 5.273740 -64.254916 -0.000004 -0.000001 -0.000000 0.000000 0.000000 0.000000 -20.634312 18.588005 10.616216 -60.602260 47.981372 45.813917 0.000000 110.461965 0.000000 -41.758902 -10.668923 -54.691729 9.046299 -4.490746 11.898442 21.960655 -19.155011 -18.129023 -0.000003 0.000000 0.000001 -0.713415 0.775358 12.260354 0.762361 -2.555369 33.219441 -0.000000 0.000000 -0.000002 3.115854 -6.943494 51.904530 6.317146 -4.351887 110.902417 0.000001 0.000000 0.000003 -3.706810 -2.383400 57.131186 5.417587 -4.594810 99.407509 0.000001 -0.000001 0.000000 -4.065802 -3.192477 64.058698 4.079186 -4.621274 82.862967 -0.000000 0.000000 0.000000 -0.000000 -0.000002 -0.000001 -0.000000 -0.000001 -0.000000 -0.000000 -0.000001 -0.000000 -0.000000 -0.000001 -0.000000 -0.000000 -0.000001 -0.000000 -0.000000 -0.000001 -0.000000 0.000001 0.000000 0.000000 -0.000000 -0.000001 -0.000000 -0.000000 -0.000001 -0.000000 0.000001 0.000000 0.000000 -0.000000 -0.000000 0.000000 -0.000000 -0.000000 0.000000 0.000000 0.000000 -0.000000 
-0.169372 10.837273 3.449692 82.676885 -0.122799 -0.932606 0.000000 0.000000 -0.000000 -11.160252 33.518860 16.193255 22.055856 -6.951031 -9.949942 -9.959439 16.117752 26.646779 0.000000 0.000000 -0.000002 0.000000 0.000000 -0.000002 0.000000 0.000004 0.000000 -34.553654 -43.582122 -46.321663 22.517708 -16.028820 -0.268053 -11.283064 2.212728 20.436112 -0.000003 -0.000002 -0.000002 -0.000003 -0.000002 -0.000002 -0.000001 -0.000002 -0.000000 5.751792 -5.527725 0.401184 -3.857770 -7.073410 1.338058 -3.370926 -7.309345 0.543220 -33.227337 -0.812391 14.981117 -5.724053 25.994561 -6.703745 -0.000002 -0.000001 0.000000 -0.000002 -0.000001 0.000000 -0.000002 -0.000001 0.000000 -37.656209 -35.723969 21.787525 -83.321963 -13.247089 -42.798570 0.000044 -51.565111 0.000030 -115.808166 15.972981 29.607565 5.312845 7.998214 2.647886 18.227943 -2.053649 7.848489 -0.000001 -0.000001 -0.000000 -0.762592 3.105156 -35.844597 3.014602 5.119669 -60.959841 -0.000001 0.000000 -0.000002 -1.731606 3.999917 -53.678798 3.792803 5.478268 -69.371117 0.000004 0.000001 0.000000 1.307485 6.604924 -63.624899 4.453967 5.682375 -76.162333 -0.000003 -0.000000 0.000003 -6.578301 4.870826 -74.005912 3.329963 5.281778 -64.437719 -0.000001 -0.000000 0.000003 0.000001 0.000001 0.000001 -20.940686 18.074733 7.982218 -65.724615 46.188372 51.601533 0.000088 111.125566 -0.000092 -41.933683 -13.690535 -51.668527 9.220539 -3.996926 12.256713 22.622843 -20.367336 -17.696356 -0.000004 0.000001 -0.000000 -0.569252 -0.093152 12.942099 0.805018 -2.619248 34.164015 0.000000 -0.000000 0.000005 2.667325 -6.571549 52.931275 6.344420 -4.341409 111.262299 0.000000 0.000001 0.000002 -4.124055 -2.238255 57.947079 5.457135 -4.588095 99.901646 0.000001 0.000001 0.000002 -4.843560 -2.990662 65.165134 4.103292 -4.624208 83.161972 -0.000000 -0.000002 -0.000002 0.000003 -0.000000 -0.000001 -0.000000 -0.000000 -0.000000 -0.000000 -0.000000 -0.000000 -0.000000 -0.000000 -0.000000 -0.000000 -0.000000 -0.000000 -0.000000 -0.000000 -0.000000 0.000001 0.000001 0.000000 -0.000000 -0.000000 -0.000000 -0.000000 -0.000000 -0.000000 0.000001 0.000001 0.000000 -0.000000 -0.000001 -0.000000 -0.000000 -0.000001 -0.000000 0.000000 0.000000 -0.000000 
-0.384091 10.683617 3.501694 82.520754 0.815529 -0.634411 0.000001 -0.000000 0.000000 -9.600967 34.150700 14.428413 20.122830 -6.122942 -9.944806 -10.273194 20.406997 28.369833 -0.000000 -0.000001 0.000001 -0.000000 -0.000001 0.000001 -0.000001 -0.000001 0.000000 -31.128010 -45.155566 -43.220071 20.178957 -15.968328 0.018831 -12.122328 -3.648357 19.973077 0.000001 -0.000001 0.000001 0.000001 -0.000001 0.000001 -0.000001 0.000001 0.000000 5.769207 -6.474151 1.067043 -3.613576 -7.340631 1.418120 -3.126283 -7.577143 0.623657 -33.389786 -0.629707 14.764919 -5.867682 25.797602 -7.015524 -0.000004 -0.000001 0.000000 -0.000004 -0.000001 0.000000 -0.000004 -0.000001 0.000000 -39.070120 -34.847451 19.691925 -85.700310 -12.295645 -43.698546 -0.000005 -53.540135 0.000002 -113.810896 14.598016 32.545162 3.899366 5.370710 3.322372 17.301277 -1.270768 7.402334 -0.000001 0.000002 0.000001 -1.252827 2.210005 -34.194604 3.065984 5.147757 -61.534219 -0.000001 0.000000 -0.000002 -2.754559 3.186737 -53.296014 4.161881 5.602735 -73.192334 0.000002 -0.000001 0.000000 2.219683 7.093606 -65.216927 4.740492 5.745065 -79.039960 0.000002 0.000002 0.000002 -7.070704 4.667667 -73.730239 3.330420 5.282011 -64.442930 -0.000002 0.000000 -0.000002 0.000001 0.000001 0.000000 -21.514117 18.199562 6.910472 -69.445566 43.462751 55.566857 0.000044 112.073371 -0.000030 -42.412995 -17.903900 -47.322662 8.632097 -3.556082 11.813213 23.686336 -21.745668 -17.081096 -0.000003 0.000001 0.000001 -0.431340 -0.931711 14.088337 0.875894 -2.720640 35.685409 -0.000001 0.000001 0.000000 2.112251 -6.148597 54.350421 6.380221 -4.327375 111.735727 0.000002 0.000001 -0.000002 -4.559850 -2.172162 59.218744 5.572493 -4.566536 101.346846 -0.000001 -0.000001 0.000005 -6.128517 -2.838252 67.550755 4.147017 -4.629229 83.703920 -0.000001 -0.000000 -0.000001 0.000000 -0.000002 -0.000001 -0.000001 0.000002 -0.000000 -0.000001 0.000002 -0.000000 -0.000001 0.000002 -0.000000 -0.000001 0.000002 -0.000000 -0.000001 0.000002 -0.000000 0.000000 0.000000 -0.000000 -0.000001 0.000002 -0.000000 -0.000001 0.000002 -0.000000 0.000000 0.000000 -0.000000 0.000000 0.000000 -0.000000 0.000000 0.000000 -0.000000 0.000001 -0.000000 0.000000 
